<?xml version="1.0" encoding="UTF-8" standalone="no"?><svg xmlns="http://www.w3.org/2000/svg" xmlns:xlink="http://www.w3.org/1999/xlink" contentScriptType="application/ecmascript" contentStyleType="text/css" height="809px" preserveAspectRatio="none" style="width:888px;height:809px;" version="1.1" viewBox="0 0 888 809" width="888px" zoomAndPan="magnify"><defs><filter height="300%" id="f1ps32ftmh5kx1" width="300%" x="-1" y="-1"><feGaussianBlur result="blurOut" stdDeviation="2.0"/><feColorMatrix in="blurOut" result="blurOut2" type="matrix" values="0 0 0 0 0 0 0 0 0 0 0 0 0 0 0 0 0 0 .4 0"/><feOffset dx="4.0" dy="4.0" in="blurOut2" result="blurOut3"/><feBlend in="SourceGraphic" in2="blurOut3" mode="normal"/></filter></defs><g><!--MD5=[be202623f7e719632131bfff51167761]
class AbstractNode--><rect codeLine="1" fill="#FFFFFF" filter="url(#f1ps32ftmh5kx1)" height="48" id="AbstractNode" style="stroke:#A9A9A9;stroke-width:1.0;" width="114" x="7" y="7"/><ellipse cx="22" cy="23" fill="#ADD1B2" rx="11" ry="11" style="stroke:#A9A9A9;stroke-width:1.0;"/><path d="M24.3438,18.6719 C23.4063,18.2344 22.8125,18.0938 21.9375,18.0938 C19.3125,18.0938 17.3125,20.1719 17.3125,22.8906 L17.3125,24.0156 C17.3125,26.5938 19.4219,28.4844 22.3125,28.4844 C23.5313,28.4844 24.6875,28.1875 25.4375,27.6406 C26.0156,27.2344 26.3438,26.7813 26.3438,26.3906 C26.3438,25.9375 25.9531,25.5469 25.4844,25.5469 C25.2656,25.5469 25.0625,25.625 24.875,25.8125 C24.4219,26.2969 24.4219,26.2969 24.2344,26.3906 C23.8125,26.6563 23.125,26.7813 22.3594,26.7813 C20.3125,26.7813 19.0156,25.6875 19.0156,23.9844 L19.0156,22.8906 C19.0156,21.1094 20.2656,19.7969 22,19.7969 C22.5781,19.7969 23.1875,19.9531 23.6563,20.2031 C24.1406,20.4844 24.3125,20.7031 24.4063,21.1094 C24.4688,21.5156 24.5,21.6406 24.6406,21.7656 C24.7813,21.9063 25.0156,22.0156 25.2344,22.0156 C25.5,22.0156 25.7656,21.875 25.9375,21.6563 C26.0469,21.5 26.0781,21.3125 26.0781,20.8906 L26.0781,19.4688 C26.0781,19.0313 26.0625,18.9063 25.9688,18.75 C25.8125,18.4844 25.5313,18.3438 25.2344,18.3438 C24.9375,18.3438 24.7344,18.4375 24.5156,18.75 L24.3438,18.6719 Z " fill="#000000"/><text fill="#000000" font-family="Helvetica" font-size="12" lengthAdjust="spacing" textLength="82" x="36" y="27.1543">AbstractNode</text><line style="stroke:#A9A9A9;stroke-width:1.0;" x1="8" x2="120" y1="39" y2="39"/><line style="stroke:#A9A9A9;stroke-width:1.0;" x1="8" x2="120" y1="47" y2="47"/><!--MD5=[629936d32481eb2d5e2e8c64760e7094]
class Checkbox--><rect codeLine="4" fill="#FFFFFF" filter="url(#f1ps32ftmh5kx1)" height="60.8047" id="Checkbox" style="stroke:#A9A9A9;stroke-width:1.0;" width="92" x="771" y="355"/><ellipse cx="786" cy="371" fill="#ADD1B2" rx="11" ry="11" style="stroke:#A9A9A9;stroke-width:1.0;"/><path d="M788.3438,366.6719 C787.4063,366.2344 786.8125,366.0938 785.9375,366.0938 C783.3125,366.0938 781.3125,368.1719 781.3125,370.8906 L781.3125,372.0156 C781.3125,374.5938 783.4219,376.4844 786.3125,376.4844 C787.5313,376.4844 788.6875,376.1875 789.4375,375.6406 C790.0156,375.2344 790.3438,374.7813 790.3438,374.3906 C790.3438,373.9375 789.9531,373.5469 789.4844,373.5469 C789.2656,373.5469 789.0625,373.625 788.875,373.8125 C788.4219,374.2969 788.4219,374.2969 788.2344,374.3906 C787.8125,374.6563 787.125,374.7813 786.3594,374.7813 C784.3125,374.7813 783.0156,373.6875 783.0156,371.9844 L783.0156,370.8906 C783.0156,369.1094 784.2656,367.7969 786,367.7969 C786.5781,367.7969 787.1875,367.9531 787.6563,368.2031 C788.1406,368.4844 788.3125,368.7031 788.4063,369.1094 C788.4688,369.5156 788.5,369.6406 788.6406,369.7656 C788.7813,369.9063 789.0156,370.0156 789.2344,370.0156 C789.5,370.0156 789.7656,369.875 789.9375,369.6563 C790.0469,369.5 790.0781,369.3125 790.0781,368.8906 L790.0781,367.4688 C790.0781,367.0313 790.0625,366.9063 789.9688,366.75 C789.8125,366.4844 789.5313,366.3438 789.2344,366.3438 C788.9375,366.3438 788.7344,366.4375 788.5156,366.75 L788.3438,366.6719 Z " fill="#000000"/><text fill="#000000" font-family="Helvetica" font-size="12" lengthAdjust="spacing" textLength="60" x="800" y="375.1543">Checkbox</text><line style="stroke:#A9A9A9;stroke-width:1.0;" x1="772" x2="862" y1="387" y2="387"/><line style="stroke:#A9A9A9;stroke-width:1.0;" x1="772" x2="862" y1="395" y2="395"/><text fill="#000000" font-family="Helvetica" font-size="11" lengthAdjust="spacing" textLength="76" x="777" y="409.2104">createState()</text><!--MD5=[1b217b79be856388b7827a34a8d95d7e]
class StatefulWidget--><rect codeLine="51" fill="#FFFFFF" filter="url(#f1ps32ftmh5kx1)" height="48" id="StatefulWidget" style="stroke:#A9A9A9;stroke-width:1.0;" width="122" x="752" y="233"/><ellipse cx="767" cy="249" fill="#A9DCDF" rx="11" ry="11" style="stroke:#A9A9A9;stroke-width:1.0;"/><path d="M769.0781,250.8125 L769.4688,251.7969 L769.0781,251.7969 C768.625,251.7969 768.5156,251.8125 768.3594,251.9219 C768.1094,252.0781 767.9531,252.3594 767.9531,252.6563 C767.9531,252.9219 768.0938,253.1719 768.3125,253.3281 C768.4531,253.4531 768.6563,253.5 769.0781,253.5 L771.4375,253.5 C771.7969,253.5 772.0156,253.4688 772.1563,253.375 C772.4063,253.2344 772.5625,252.9375 772.5625,252.6563 C772.5625,252.375 772.4219,252.125 772.2031,251.9688 C772.0313,251.8281 771.875,251.7969 771.4063,251.7969 L768.0156,243.5938 L764.3438,243.5938 C763.8906,243.5938 763.7656,243.6094 763.6094,243.7031 C763.3594,243.875 763.2031,244.1563 763.2031,244.4375 C763.2031,244.7188 763.3438,244.9688 763.5625,245.1406 C763.7344,245.25 763.9063,245.2813 764.3438,245.2813 L765.4219,245.2813 L762.7813,251.7969 C762.3594,251.7969 762.2031,251.8125 762.0469,251.9219 C761.7969,252.0781 761.6406,252.3594 761.6406,252.6563 C761.6406,253.2188 762.0156,253.5 762.7656,253.5 L765.0313,253.5 C765.3906,253.5 765.6094,253.4688 765.7344,253.375 C766,253.2344 766.1406,252.9375 766.1406,252.6563 C766.1406,252.375 766.0156,252.125 765.7969,251.9531 C765.625,251.8281 765.4844,251.7969 765.0313,251.7969 L764.6406,251.7969 L765.0313,250.8125 L769.0781,250.8125 Z M768.375,249.1094 L765.7031,249.1094 L767.0469,245.8438 L768.375,249.1094 Z " fill="#000000"/><text fill="#000000" font-family="Helvetica" font-size="12" font-style="italic" lengthAdjust="spacing" textLength="90" x="781" y="253.1543">StatefulWidget</text><line style="stroke:#A9A9A9;stroke-width:1.0;" x1="753" x2="873" y1="265" y2="265"/><line style="stroke:#A9A9A9;stroke-width:1.0;" x1="753" x2="873" y1="273" y2="273"/><!--MD5=[8d29a26991cf01664b2385503b863d1c]
class _CheckboxRenderObjectWidget--><rect codeLine="8" fill="#FFFFFF" filter="url(#f1ps32ftmh5kx1)" height="60.8047" id="_CheckboxRenderObjectWidget" style="stroke:#A9A9A9;stroke-width:1.0;" width="362" x="251" y="611"/><ellipse cx="331.75" cy="627" fill="#ADD1B2" rx="11" ry="11" style="stroke:#A9A9A9;stroke-width:1.0;"/><path d="M334.0938,622.6719 C333.1563,622.2344 332.5625,622.0938 331.6875,622.0938 C329.0625,622.0938 327.0625,624.1719 327.0625,626.8906 L327.0625,628.0156 C327.0625,630.5938 329.1719,632.4844 332.0625,632.4844 C333.2813,632.4844 334.4375,632.1875 335.1875,631.6406 C335.7656,631.2344 336.0938,630.7813 336.0938,630.3906 C336.0938,629.9375 335.7031,629.5469 335.2344,629.5469 C335.0156,629.5469 334.8125,629.625 334.625,629.8125 C334.1719,630.2969 334.1719,630.2969 333.9844,630.3906 C333.5625,630.6563 332.875,630.7813 332.1094,630.7813 C330.0625,630.7813 328.7656,629.6875 328.7656,627.9844 L328.7656,626.8906 C328.7656,625.1094 330.0156,623.7969 331.75,623.7969 C332.3281,623.7969 332.9375,623.9531 333.4063,624.2031 C333.8906,624.4844 334.0625,624.7031 334.1563,625.1094 C334.2188,625.5156 334.25,625.6406 334.3906,625.7656 C334.5313,625.9063 334.7656,626.0156 334.9844,626.0156 C335.25,626.0156 335.5156,625.875 335.6875,625.6563 C335.7969,625.5 335.8281,625.3125 335.8281,624.8906 L335.8281,623.4688 C335.8281,623.0313 335.8125,622.9063 335.7188,622.75 C335.5625,622.4844 335.2813,622.3438 334.9844,622.3438 C334.6875,622.3438 334.4844,622.4375 334.2656,622.75 L334.0938,622.6719 Z " fill="#000000"/><text fill="#000000" font-family="Helvetica" font-size="12" lengthAdjust="spacing" textLength="192" x="352.25" y="631.1543">_CheckboxRenderObjectWidget</text><line style="stroke:#A9A9A9;stroke-width:1.0;" x1="252" x2="612" y1="643" y2="643"/><line style="stroke:#A9A9A9;stroke-width:1.0;" x1="252" x2="612" y1="651" y2="651"/><text fill="#000000" font-family="Helvetica" font-size="11" lengthAdjust="spacing" textLength="350" x="257" y="665.2104">_RenderCheckbox createRenderObject(BuildContext context)</text><!--MD5=[f1430416aece2ad47ea92bab271f13a8]
class LeafRenderObjectWidget--><rect codeLine="25" fill="#FFFFFF" filter="url(#f1ps32ftmh5kx1)" height="60.8047" id="LeafRenderObjectWidget" style="stroke:#A9A9A9;stroke-width:1.0;" width="183" x="301.5" y="227"/><ellipse cx="316.5" cy="243" fill="#ADD1B2" rx="11" ry="11" style="stroke:#A9A9A9;stroke-width:1.0;"/><path d="M318.8438,238.6719 C317.9063,238.2344 317.3125,238.0938 316.4375,238.0938 C313.8125,238.0938 311.8125,240.1719 311.8125,242.8906 L311.8125,244.0156 C311.8125,246.5938 313.9219,248.4844 316.8125,248.4844 C318.0313,248.4844 319.1875,248.1875 319.9375,247.6406 C320.5156,247.2344 320.8438,246.7813 320.8438,246.3906 C320.8438,245.9375 320.4531,245.5469 319.9844,245.5469 C319.7656,245.5469 319.5625,245.625 319.375,245.8125 C318.9219,246.2969 318.9219,246.2969 318.7344,246.3906 C318.3125,246.6563 317.625,246.7813 316.8594,246.7813 C314.8125,246.7813 313.5156,245.6875 313.5156,243.9844 L313.5156,242.8906 C313.5156,241.1094 314.7656,239.7969 316.5,239.7969 C317.0781,239.7969 317.6875,239.9531 318.1563,240.2031 C318.6406,240.4844 318.8125,240.7031 318.9063,241.1094 C318.9688,241.5156 319,241.6406 319.1406,241.7656 C319.2813,241.9063 319.5156,242.0156 319.7344,242.0156 C320,242.0156 320.2656,241.875 320.4375,241.6563 C320.5469,241.5 320.5781,241.3125 320.5781,240.8906 L320.5781,239.4688 C320.5781,239.0313 320.5625,238.9063 320.4688,238.75 C320.3125,238.4844 320.0313,238.3438 319.7344,238.3438 C319.4375,238.3438 319.2344,238.4375 319.0156,238.75 L318.8438,238.6719 Z " fill="#000000"/><text fill="#000000" font-family="Helvetica" font-size="12" lengthAdjust="spacing" textLength="151" x="330.5" y="247.1543">LeafRenderObjectWidget</text><line style="stroke:#A9A9A9;stroke-width:1.0;" x1="302.5" x2="483.5" y1="259" y2="259"/><line style="stroke:#A9A9A9;stroke-width:1.0;" x1="302.5" x2="483.5" y1="267" y2="267"/><text fill="#000000" font-family="Helvetica" font-size="11" lengthAdjust="spacing" textLength="93" x="307.5" y="281.2104">createElement()</text><!--MD5=[8fc7a4f3145fb5fc0515643858b3be4b]
class _CheckboxState--><rect codeLine="12" fill="#FFFFFF" filter="url(#f1ps32ftmh5kx1)" height="60.8047" id="_CheckboxState" style="stroke:#A9A9A9;stroke-width:1.0;" width="167" x="612.5" y="483"/><ellipse cx="644.6" cy="499" fill="#ADD1B2" rx="11" ry="11" style="stroke:#A9A9A9;stroke-width:1.0;"/><path d="M646.9438,494.6719 C646.0063,494.2344 645.4125,494.0938 644.5375,494.0938 C641.9125,494.0938 639.9125,496.1719 639.9125,498.8906 L639.9125,500.0156 C639.9125,502.5938 642.0219,504.4844 644.9125,504.4844 C646.1313,504.4844 647.2875,504.1875 648.0375,503.6406 C648.6156,503.2344 648.9438,502.7813 648.9438,502.3906 C648.9438,501.9375 648.5531,501.5469 648.0844,501.5469 C647.8656,501.5469 647.6625,501.625 647.475,501.8125 C647.0219,502.2969 647.0219,502.2969 646.8344,502.3906 C646.4125,502.6563 645.725,502.7813 644.9594,502.7813 C642.9125,502.7813 641.6156,501.6875 641.6156,499.9844 L641.6156,498.8906 C641.6156,497.1094 642.8656,495.7969 644.6,495.7969 C645.1781,495.7969 645.7875,495.9531 646.2563,496.2031 C646.7406,496.4844 646.9125,496.7031 647.0063,497.1094 C647.0688,497.5156 647.1,497.6406 647.2406,497.7656 C647.3813,497.9063 647.6156,498.0156 647.8344,498.0156 C648.1,498.0156 648.3656,497.875 648.5375,497.6563 C648.6469,497.5 648.6781,497.3125 648.6781,496.8906 L648.6781,495.4688 C648.6781,495.0313 648.6625,494.9063 648.5688,494.75 C648.4125,494.4844 648.1313,494.3438 647.8344,494.3438 C647.5375,494.3438 647.3344,494.4375 647.1156,494.75 L646.9438,494.6719 Z " fill="#000000"/><text fill="#000000" font-family="Helvetica" font-size="12" lengthAdjust="spacing" textLength="97" x="662.4" y="503.1543">_CheckboxState</text><line style="stroke:#A9A9A9;stroke-width:1.0;" x1="613.5" x2="778.5" y1="515" y2="515"/><line style="stroke:#A9A9A9;stroke-width:1.0;" x1="613.5" x2="778.5" y1="523" y2="523"/><text fill="#000000" font-family="Helvetica" font-size="11" lengthAdjust="spacing" textLength="155" x="618.5" y="537.2104">build(BuildContext context)</text><!--MD5=[60d6b92408f98aed8df94d5c6e04aa63]
class State--><rect fill="#FFFFFF" filter="url(#f1ps32ftmh5kx1)" height="48" id="State" style="stroke:#A9A9A9;stroke-width:1.0;" width="63" x="664.5" y="361"/><ellipse cx="679.5" cy="377" fill="#ADD1B2" rx="11" ry="11" style="stroke:#A9A9A9;stroke-width:1.0;"/><path d="M681.8438,372.6719 C680.9063,372.2344 680.3125,372.0938 679.4375,372.0938 C676.8125,372.0938 674.8125,374.1719 674.8125,376.8906 L674.8125,378.0156 C674.8125,380.5938 676.9219,382.4844 679.8125,382.4844 C681.0313,382.4844 682.1875,382.1875 682.9375,381.6406 C683.5156,381.2344 683.8438,380.7813 683.8438,380.3906 C683.8438,379.9375 683.4531,379.5469 682.9844,379.5469 C682.7656,379.5469 682.5625,379.625 682.375,379.8125 C681.9219,380.2969 681.9219,380.2969 681.7344,380.3906 C681.3125,380.6563 680.625,380.7813 679.8594,380.7813 C677.8125,380.7813 676.5156,379.6875 676.5156,377.9844 L676.5156,376.8906 C676.5156,375.1094 677.7656,373.7969 679.5,373.7969 C680.0781,373.7969 680.6875,373.9531 681.1563,374.2031 C681.6406,374.4844 681.8125,374.7031 681.9063,375.1094 C681.9688,375.5156 682,375.6406 682.1406,375.7656 C682.2813,375.9063 682.5156,376.0156 682.7344,376.0156 C683,376.0156 683.2656,375.875 683.4375,375.6563 C683.5469,375.5 683.5781,375.3125 683.5781,374.8906 L683.5781,373.4688 C683.5781,373.0313 683.5625,372.9063 683.4688,372.75 C683.3125,372.4844 683.0313,372.3438 682.7344,372.3438 C682.4375,372.3438 682.2344,372.4375 682.0156,372.75 L681.8438,372.6719 Z " fill="#000000"/><text fill="#000000" font-family="Helvetica" font-size="12" lengthAdjust="spacing" textLength="31" x="693.5" y="381.1543">State</text><line style="stroke:#A9A9A9;stroke-width:1.0;" x1="665.5" x2="726.5" y1="393" y2="393"/><line style="stroke:#A9A9A9;stroke-width:1.0;" x1="665.5" x2="726.5" y1="401" y2="401"/><!--MD5=[fe9f741493858b48ce6bb5ab8241e7d8]
class DiagnosticableTree--><rect codeLine="16" fill="#FFFFFF" filter="url(#f1ps32ftmh5kx1)" height="48" id="DiagnosticableTree" style="stroke:#A9A9A9;stroke-width:1.0;" width="146" x="723" y="7"/><ellipse cx="738" cy="23" fill="#A9DCDF" rx="11" ry="11" style="stroke:#A9A9A9;stroke-width:1.0;"/><path d="M740.0781,24.8125 L740.4688,25.7969 L740.0781,25.7969 C739.625,25.7969 739.5156,25.8125 739.3594,25.9219 C739.1094,26.0781 738.9531,26.3594 738.9531,26.6563 C738.9531,26.9219 739.0938,27.1719 739.3125,27.3281 C739.4531,27.4531 739.6563,27.5 740.0781,27.5 L742.4375,27.5 C742.7969,27.5 743.0156,27.4688 743.1563,27.375 C743.4063,27.2344 743.5625,26.9375 743.5625,26.6563 C743.5625,26.375 743.4219,26.125 743.2031,25.9688 C743.0313,25.8281 742.875,25.7969 742.4063,25.7969 L739.0156,17.5938 L735.3438,17.5938 C734.8906,17.5938 734.7656,17.6094 734.6094,17.7031 C734.3594,17.875 734.2031,18.1563 734.2031,18.4375 C734.2031,18.7188 734.3438,18.9688 734.5625,19.1406 C734.7344,19.25 734.9063,19.2813 735.3438,19.2813 L736.4219,19.2813 L733.7813,25.7969 C733.3594,25.7969 733.2031,25.8125 733.0469,25.9219 C732.7969,26.0781 732.6406,26.3594 732.6406,26.6563 C732.6406,27.2188 733.0156,27.5 733.7656,27.5 L736.0313,27.5 C736.3906,27.5 736.6094,27.4688 736.7344,27.375 C737,27.2344 737.1406,26.9375 737.1406,26.6563 C737.1406,26.375 737.0156,26.125 736.7969,25.9531 C736.625,25.8281 736.4844,25.7969 736.0313,25.7969 L735.6406,25.7969 L736.0313,24.8125 L740.0781,24.8125 Z M739.375,23.1094 L736.7031,23.1094 L738.0469,19.8438 L739.375,23.1094 Z " fill="#000000"/><text fill="#000000" font-family="Helvetica" font-size="12" font-style="italic" lengthAdjust="spacing" textLength="114" x="752" y="27.1543">DiagnosticableTree</text><line style="stroke:#A9A9A9;stroke-width:1.0;" x1="724" x2="868" y1="39" y2="39"/><line style="stroke:#A9A9A9;stroke-width:1.0;" x1="724" x2="868" y1="47" y2="47"/><!--MD5=[95174e42ee347a14b6cb78d6855f19b5]
class Element--><rect codeLine="19" fill="#FFFFFF" filter="url(#f1ps32ftmh5kx1)" height="48" id="Element" style="stroke:#A9A9A9;stroke-width:1.0;" width="82" x="590" y="115"/><ellipse cx="605" cy="131" fill="#A9DCDF" rx="11" ry="11" style="stroke:#A9A9A9;stroke-width:1.0;"/><path d="M607.0781,132.8125 L607.4688,133.7969 L607.0781,133.7969 C606.625,133.7969 606.5156,133.8125 606.3594,133.9219 C606.1094,134.0781 605.9531,134.3594 605.9531,134.6563 C605.9531,134.9219 606.0938,135.1719 606.3125,135.3281 C606.4531,135.4531 606.6563,135.5 607.0781,135.5 L609.4375,135.5 C609.7969,135.5 610.0156,135.4688 610.1563,135.375 C610.4063,135.2344 610.5625,134.9375 610.5625,134.6563 C610.5625,134.375 610.4219,134.125 610.2031,133.9688 C610.0313,133.8281 609.875,133.7969 609.4063,133.7969 L606.0156,125.5938 L602.3438,125.5938 C601.8906,125.5938 601.7656,125.6094 601.6094,125.7031 C601.3594,125.875 601.2031,126.1563 601.2031,126.4375 C601.2031,126.7188 601.3438,126.9688 601.5625,127.1406 C601.7344,127.25 601.9063,127.2813 602.3438,127.2813 L603.4219,127.2813 L600.7813,133.7969 C600.3594,133.7969 600.2031,133.8125 600.0469,133.9219 C599.7969,134.0781 599.6406,134.3594 599.6406,134.6563 C599.6406,135.2188 600.0156,135.5 600.7656,135.5 L603.0313,135.5 C603.3906,135.5 603.6094,135.4688 603.7344,135.375 C604,135.2344 604.1406,134.9375 604.1406,134.6563 C604.1406,134.375 604.0156,134.125 603.7969,133.9531 C603.625,133.8281 603.4844,133.7969 603.0313,133.7969 L602.6406,133.7969 L603.0313,132.8125 L607.0781,132.8125 Z M606.375,131.1094 L603.7031,131.1094 L605.0469,127.8438 L606.375,131.1094 Z " fill="#000000"/><text fill="#000000" font-family="Helvetica" font-size="12" font-style="italic" lengthAdjust="spacing" textLength="50" x="619" y="135.1543">Element</text><line style="stroke:#A9A9A9;stroke-width:1.0;" x1="591" x2="671" y1="147" y2="147"/><line style="stroke:#A9A9A9;stroke-width:1.0;" x1="591" x2="671" y1="155" y2="155"/><!--MD5=[d5d786dfd20ceba79d9b37104dd75e1c]
class BuildContext--><rect fill="#FFFFFF" filter="url(#f1ps32ftmh5kx1)" height="48" id="BuildContext" style="stroke:#A9A9A9;stroke-width:1.0;" width="109" x="576.5" y="7"/><ellipse cx="591.5" cy="23" fill="#B4A7E5" rx="11" ry="11" style="stroke:#A9A9A9;stroke-width:1.0;"/><path d="M592.4531,19.7813 L594.1719,19.7813 C594.5625,19.7813 594.75,19.75 594.875,19.6719 C595.1406,19.5156 595.2813,19.2344 595.2813,18.9375 C595.2813,18.6719 595.1719,18.4063 594.9375,18.2344 C594.7656,18.125 594.625,18.0938 594.1719,18.0938 L589.0313,18.0938 C588.5938,18.0938 588.4688,18.1094 588.3125,18.2031 C588.0625,18.3594 587.9063,18.6563 587.9063,18.9375 C587.9063,19.2188 588.0469,19.4688 588.2656,19.6406 C588.4219,19.75 588.6094,19.7813 589.0313,19.7813 L590.75,19.7813 L590.75,26.2969 L589.0313,26.2969 C588.5938,26.2969 588.4688,26.3125 588.3125,26.4219 C588.0625,26.5781 587.9063,26.8594 587.9063,27.1563 C587.9063,27.4063 588.0469,27.6719 588.2656,27.8281 C588.4219,27.9531 588.625,28 589.0313,28 L594.1719,28 C594.9219,28 595.2813,27.7188 595.2813,27.1563 C595.2813,26.875 595.1719,26.625 594.9375,26.4531 C594.7656,26.3281 594.625,26.2969 594.1719,26.2969 L592.4531,26.2969 L592.4531,19.7813 Z " fill="#000000"/><text fill="#000000" font-family="Helvetica" font-size="12" font-style="italic" lengthAdjust="spacing" textLength="77" x="605.5" y="27.1543">BuildContext</text><line style="stroke:#A9A9A9;stroke-width:1.0;" x1="577.5" x2="684.5" y1="39" y2="39"/><line style="stroke:#A9A9A9;stroke-width:1.0;" x1="577.5" x2="684.5" y1="47" y2="47"/><!--MD5=[0d47b620c86662df68b8c001ca7fdcdb]
class LeafRenderObjectElement--><rect codeLine="22" fill="#FFFFFF" filter="url(#f1ps32ftmh5kx1)" height="48" id="LeafRenderObjectElement" style="stroke:#A9A9A9;stroke-width:1.0;" width="188" x="441" y="361"/><ellipse cx="456" cy="377" fill="#ADD1B2" rx="11" ry="11" style="stroke:#A9A9A9;stroke-width:1.0;"/><path d="M458.3438,372.6719 C457.4063,372.2344 456.8125,372.0938 455.9375,372.0938 C453.3125,372.0938 451.3125,374.1719 451.3125,376.8906 L451.3125,378.0156 C451.3125,380.5938 453.4219,382.4844 456.3125,382.4844 C457.5313,382.4844 458.6875,382.1875 459.4375,381.6406 C460.0156,381.2344 460.3438,380.7813 460.3438,380.3906 C460.3438,379.9375 459.9531,379.5469 459.4844,379.5469 C459.2656,379.5469 459.0625,379.625 458.875,379.8125 C458.4219,380.2969 458.4219,380.2969 458.2344,380.3906 C457.8125,380.6563 457.125,380.7813 456.3594,380.7813 C454.3125,380.7813 453.0156,379.6875 453.0156,377.9844 L453.0156,376.8906 C453.0156,375.1094 454.2656,373.7969 456,373.7969 C456.5781,373.7969 457.1875,373.9531 457.6563,374.2031 C458.1406,374.4844 458.3125,374.7031 458.4063,375.1094 C458.4688,375.5156 458.5,375.6406 458.6406,375.7656 C458.7813,375.9063 459.0156,376.0156 459.2344,376.0156 C459.5,376.0156 459.7656,375.875 459.9375,375.6563 C460.0469,375.5 460.0781,375.3125 460.0781,374.8906 L460.0781,373.4688 C460.0781,373.0313 460.0625,372.9063 459.9688,372.75 C459.8125,372.4844 459.5313,372.3438 459.2344,372.3438 C458.9375,372.3438 458.7344,372.4375 458.5156,372.75 L458.3438,372.6719 Z " fill="#000000"/><text fill="#000000" font-family="Helvetica" font-size="12" lengthAdjust="spacing" textLength="156" x="470" y="381.1543">LeafRenderObjectElement</text><line style="stroke:#A9A9A9;stroke-width:1.0;" x1="442" x2="628" y1="393" y2="393"/><line style="stroke:#A9A9A9;stroke-width:1.0;" x1="442" x2="628" y1="401" y2="401"/><!--MD5=[72ccbd122063691850dae35210a9468c]
class RenderObjectElement--><rect codeLine="42" fill="#FFFFFF" filter="url(#f1ps32ftmh5kx1)" height="48" id="RenderObjectElement" style="stroke:#A9A9A9;stroke-width:1.0;" width="164" x="545" y="233"/><ellipse cx="560" cy="249" fill="#A9DCDF" rx="11" ry="11" style="stroke:#A9A9A9;stroke-width:1.0;"/><path d="M562.0781,250.8125 L562.4688,251.7969 L562.0781,251.7969 C561.625,251.7969 561.5156,251.8125 561.3594,251.9219 C561.1094,252.0781 560.9531,252.3594 560.9531,252.6563 C560.9531,252.9219 561.0938,253.1719 561.3125,253.3281 C561.4531,253.4531 561.6563,253.5 562.0781,253.5 L564.4375,253.5 C564.7969,253.5 565.0156,253.4688 565.1563,253.375 C565.4063,253.2344 565.5625,252.9375 565.5625,252.6563 C565.5625,252.375 565.4219,252.125 565.2031,251.9688 C565.0313,251.8281 564.875,251.7969 564.4063,251.7969 L561.0156,243.5938 L557.3438,243.5938 C556.8906,243.5938 556.7656,243.6094 556.6094,243.7031 C556.3594,243.875 556.2031,244.1563 556.2031,244.4375 C556.2031,244.7188 556.3438,244.9688 556.5625,245.1406 C556.7344,245.25 556.9063,245.2813 557.3438,245.2813 L558.4219,245.2813 L555.7813,251.7969 C555.3594,251.7969 555.2031,251.8125 555.0469,251.9219 C554.7969,252.0781 554.6406,252.3594 554.6406,252.6563 C554.6406,253.2188 555.0156,253.5 555.7656,253.5 L558.0313,253.5 C558.3906,253.5 558.6094,253.4688 558.7344,253.375 C559,253.2344 559.1406,252.9375 559.1406,252.6563 C559.1406,252.375 559.0156,252.125 558.7969,251.9531 C558.625,251.8281 558.4844,251.7969 558.0313,251.7969 L557.6406,251.7969 L558.0313,250.8125 L562.0781,250.8125 Z M561.375,249.1094 L558.7031,249.1094 L560.0469,245.8438 L561.375,249.1094 Z " fill="#000000"/><text fill="#000000" font-family="Helvetica" font-size="12" font-style="italic" lengthAdjust="spacing" textLength="132" x="574" y="253.1543">RenderObjectElement</text><line style="stroke:#A9A9A9;stroke-width:1.0;" x1="546" x2="708" y1="265" y2="265"/><line style="stroke:#A9A9A9;stroke-width:1.0;" x1="546" x2="708" y1="273" y2="273"/><!--MD5=[089dc3e67100ed4d497fe4cec0bffe8a]
class RenderObjectWidget--><rect fill="#FFFFFF" filter="url(#f1ps32ftmh5kx1)" height="48" id="RenderObjectWidget" style="stroke:#A9A9A9;stroke-width:1.0;" width="158" x="314" y="115"/><ellipse cx="329" cy="131" fill="#ADD1B2" rx="11" ry="11" style="stroke:#A9A9A9;stroke-width:1.0;"/><path d="M331.3438,126.6719 C330.4063,126.2344 329.8125,126.0938 328.9375,126.0938 C326.3125,126.0938 324.3125,128.1719 324.3125,130.8906 L324.3125,132.0156 C324.3125,134.5938 326.4219,136.4844 329.3125,136.4844 C330.5313,136.4844 331.6875,136.1875 332.4375,135.6406 C333.0156,135.2344 333.3438,134.7813 333.3438,134.3906 C333.3438,133.9375 332.9531,133.5469 332.4844,133.5469 C332.2656,133.5469 332.0625,133.625 331.875,133.8125 C331.4219,134.2969 331.4219,134.2969 331.2344,134.3906 C330.8125,134.6563 330.125,134.7813 329.3594,134.7813 C327.3125,134.7813 326.0156,133.6875 326.0156,131.9844 L326.0156,130.8906 C326.0156,129.1094 327.2656,127.7969 329,127.7969 C329.5781,127.7969 330.1875,127.9531 330.6563,128.2031 C331.1406,128.4844 331.3125,128.7031 331.4063,129.1094 C331.4688,129.5156 331.5,129.6406 331.6406,129.7656 C331.7813,129.9063 332.0156,130.0156 332.2344,130.0156 C332.5,130.0156 332.7656,129.875 332.9375,129.6563 C333.0469,129.5 333.0781,129.3125 333.0781,128.8906 L333.0781,127.4688 C333.0781,127.0313 333.0625,126.9063 332.9688,126.75 C332.8125,126.4844 332.5313,126.3438 332.2344,126.3438 C331.9375,126.3438 331.7344,126.4375 331.5156,126.75 L331.3438,126.6719 Z " fill="#000000"/><text fill="#000000" font-family="Helvetica" font-size="12" lengthAdjust="spacing" textLength="126" x="343" y="135.1543">RenderObjectWidget</text><line style="stroke:#A9A9A9;stroke-width:1.0;" x1="315" x2="471" y1="147" y2="147"/><line style="stroke:#A9A9A9;stroke-width:1.0;" x1="315" x2="471" y1="155" y2="155"/><!--MD5=[ce3878a4dd53db390bf0143150e5448a]
class RenderBox--><rect codeLine="29" fill="#FFFFFF" filter="url(#f1ps32ftmh5kx1)" height="48" id="RenderBox" style="stroke:#A9A9A9;stroke-width:1.0;" width="97" x="89.5" y="233"/><ellipse cx="104.5" cy="249" fill="#A9DCDF" rx="11" ry="11" style="stroke:#A9A9A9;stroke-width:1.0;"/><path d="M106.5781,250.8125 L106.9688,251.7969 L106.5781,251.7969 C106.125,251.7969 106.0156,251.8125 105.8594,251.9219 C105.6094,252.0781 105.4531,252.3594 105.4531,252.6563 C105.4531,252.9219 105.5938,253.1719 105.8125,253.3281 C105.9531,253.4531 106.1563,253.5 106.5781,253.5 L108.9375,253.5 C109.2969,253.5 109.5156,253.4688 109.6563,253.375 C109.9063,253.2344 110.0625,252.9375 110.0625,252.6563 C110.0625,252.375 109.9219,252.125 109.7031,251.9688 C109.5313,251.8281 109.375,251.7969 108.9063,251.7969 L105.5156,243.5938 L101.8438,243.5938 C101.3906,243.5938 101.2656,243.6094 101.1094,243.7031 C100.8594,243.875 100.7031,244.1563 100.7031,244.4375 C100.7031,244.7188 100.8438,244.9688 101.0625,245.1406 C101.2344,245.25 101.4063,245.2813 101.8438,245.2813 L102.9219,245.2813 L100.2813,251.7969 C99.8594,251.7969 99.7031,251.8125 99.5469,251.9219 C99.2969,252.0781 99.1406,252.3594 99.1406,252.6563 C99.1406,253.2188 99.5156,253.5 100.2656,253.5 L102.5313,253.5 C102.8906,253.5 103.1094,253.4688 103.2344,253.375 C103.5,253.2344 103.6406,252.9375 103.6406,252.6563 C103.6406,252.375 103.5156,252.125 103.2969,251.9531 C103.125,251.8281 102.9844,251.7969 102.5313,251.7969 L102.1406,251.7969 L102.5313,250.8125 L106.5781,250.8125 Z M105.875,249.1094 L103.2031,249.1094 L104.5469,245.8438 L105.875,249.1094 Z " fill="#000000"/><text fill="#000000" font-family="Helvetica" font-size="12" font-style="italic" lengthAdjust="spacing" textLength="65" x="118.5" y="253.1543">RenderBox</text><line style="stroke:#A9A9A9;stroke-width:1.0;" x1="90.5" x2="185.5" y1="265" y2="265"/><line style="stroke:#A9A9A9;stroke-width:1.0;" x1="90.5" x2="185.5" y1="273" y2="273"/><!--MD5=[631b001db0d87988165fb5a0875774e0]
class RenderObject--><rect codeLine="39" fill="#FFFFFF" filter="url(#f1ps32ftmh5kx1)" height="48" id="RenderObject" style="stroke:#A9A9A9;stroke-width:1.0;" width="114" x="81" y="115"/><ellipse cx="96" cy="131" fill="#A9DCDF" rx="11" ry="11" style="stroke:#A9A9A9;stroke-width:1.0;"/><path d="M98.0781,132.8125 L98.4688,133.7969 L98.0781,133.7969 C97.625,133.7969 97.5156,133.8125 97.3594,133.9219 C97.1094,134.0781 96.9531,134.3594 96.9531,134.6563 C96.9531,134.9219 97.0938,135.1719 97.3125,135.3281 C97.4531,135.4531 97.6563,135.5 98.0781,135.5 L100.4375,135.5 C100.7969,135.5 101.0156,135.4688 101.1563,135.375 C101.4063,135.2344 101.5625,134.9375 101.5625,134.6563 C101.5625,134.375 101.4219,134.125 101.2031,133.9688 C101.0313,133.8281 100.875,133.7969 100.4063,133.7969 L97.0156,125.5938 L93.3438,125.5938 C92.8906,125.5938 92.7656,125.6094 92.6094,125.7031 C92.3594,125.875 92.2031,126.1563 92.2031,126.4375 C92.2031,126.7188 92.3438,126.9688 92.5625,127.1406 C92.7344,127.25 92.9063,127.2813 93.3438,127.2813 L94.4219,127.2813 L91.7813,133.7969 C91.3594,133.7969 91.2031,133.8125 91.0469,133.9219 C90.7969,134.0781 90.6406,134.3594 90.6406,134.6563 C90.6406,135.2188 91.0156,135.5 91.7656,135.5 L94.0313,135.5 C94.3906,135.5 94.6094,135.4688 94.7344,135.375 C95,135.2344 95.1406,134.9375 95.1406,134.6563 C95.1406,134.375 95.0156,134.125 94.7969,133.9531 C94.625,133.8281 94.4844,133.7969 94.0313,133.7969 L93.6406,133.7969 L94.0313,132.8125 L98.0781,132.8125 Z M97.375,131.1094 L94.7031,131.1094 L96.0469,127.8438 L97.375,131.1094 Z " fill="#000000"/><text fill="#000000" font-family="Helvetica" font-size="12" font-style="italic" lengthAdjust="spacing" textLength="82" x="110" y="135.1543">RenderObject</text><line style="stroke:#A9A9A9;stroke-width:1.0;" x1="82" x2="194" y1="147" y2="147"/><line style="stroke:#A9A9A9;stroke-width:1.0;" x1="82" x2="194" y1="155" y2="155"/><!--MD5=[953468e6d2f0dbc194e87d38904325f8]
class _RenderCheckbox--><rect codeLine="32" fill="#FFFFFF" filter="url(#f1ps32ftmh5kx1)" height="60.8047" id="_RenderCheckbox" style="stroke:#A9A9A9;stroke-width:1.0;" width="291" x="139.5" y="735"/><ellipse cx="226.25" cy="751" fill="#ADD1B2" rx="11" ry="11" style="stroke:#A9A9A9;stroke-width:1.0;"/><path d="M228.5938,746.6719 C227.6563,746.2344 227.0625,746.0938 226.1875,746.0938 C223.5625,746.0938 221.5625,748.1719 221.5625,750.8906 L221.5625,752.0156 C221.5625,754.5938 223.6719,756.4844 226.5625,756.4844 C227.7813,756.4844 228.9375,756.1875 229.6875,755.6406 C230.2656,755.2344 230.5938,754.7813 230.5938,754.3906 C230.5938,753.9375 230.2031,753.5469 229.7344,753.5469 C229.5156,753.5469 229.3125,753.625 229.125,753.8125 C228.6719,754.2969 228.6719,754.2969 228.4844,754.3906 C228.0625,754.6563 227.375,754.7813 226.6094,754.7813 C224.5625,754.7813 223.2656,753.6875 223.2656,751.9844 L223.2656,750.8906 C223.2656,749.1094 224.5156,747.7969 226.25,747.7969 C226.8281,747.7969 227.4375,747.9531 227.9063,748.2031 C228.3906,748.4844 228.5625,748.7031 228.6563,749.1094 C228.7188,749.5156 228.75,749.6406 228.8906,749.7656 C229.0313,749.9063 229.2656,750.0156 229.4844,750.0156 C229.75,750.0156 230.0156,749.875 230.1875,749.6563 C230.2969,749.5 230.3281,749.3125 230.3281,748.8906 L230.3281,747.4688 C230.3281,747.0313 230.3125,746.9063 230.2188,746.75 C230.0625,746.4844 229.7813,746.3438 229.4844,746.3438 C229.1875,746.3438 228.9844,746.4375 228.7656,746.75 L228.5938,746.6719 Z " fill="#000000"/><text fill="#000000" font-family="Helvetica" font-size="12" lengthAdjust="spacing" textLength="109" x="246.75" y="755.1543">_RenderCheckbox</text><line style="stroke:#A9A9A9;stroke-width:1.0;" x1="140.5" x2="429.5" y1="767" y2="767"/><line style="stroke:#A9A9A9;stroke-width:1.0;" x1="140.5" x2="429.5" y1="775" y2="775"/><text fill="#000000" font-family="Helvetica" font-size="11" lengthAdjust="spacing" textLength="279" x="145.5" y="789.2104">void paint(PaintingContext context, Offset offset)</text><!--MD5=[8b60546be8b5559b6dde2c7572df6e1f]
class RenderToggleable--><rect codeLine="48" fill="#FFFFFF" filter="url(#f1ps32ftmh5kx1)" height="48" id="RenderToggleable" style="stroke:#A9A9A9;stroke-width:1.0;" width="140" x="68" y="617"/><ellipse cx="83" cy="633" fill="#A9DCDF" rx="11" ry="11" style="stroke:#A9A9A9;stroke-width:1.0;"/><path d="M85.0781,634.8125 L85.4688,635.7969 L85.0781,635.7969 C84.625,635.7969 84.5156,635.8125 84.3594,635.9219 C84.1094,636.0781 83.9531,636.3594 83.9531,636.6563 C83.9531,636.9219 84.0938,637.1719 84.3125,637.3281 C84.4531,637.4531 84.6563,637.5 85.0781,637.5 L87.4375,637.5 C87.7969,637.5 88.0156,637.4688 88.1563,637.375 C88.4063,637.2344 88.5625,636.9375 88.5625,636.6563 C88.5625,636.375 88.4219,636.125 88.2031,635.9688 C88.0313,635.8281 87.875,635.7969 87.4063,635.7969 L84.0156,627.5938 L80.3438,627.5938 C79.8906,627.5938 79.7656,627.6094 79.6094,627.7031 C79.3594,627.875 79.2031,628.1563 79.2031,628.4375 C79.2031,628.7188 79.3438,628.9688 79.5625,629.1406 C79.7344,629.25 79.9063,629.2813 80.3438,629.2813 L81.4219,629.2813 L78.7813,635.7969 C78.3594,635.7969 78.2031,635.8125 78.0469,635.9219 C77.7969,636.0781 77.6406,636.3594 77.6406,636.6563 C77.6406,637.2188 78.0156,637.5 78.7656,637.5 L81.0313,637.5 C81.3906,637.5 81.6094,637.4688 81.7344,637.375 C82,637.2344 82.1406,636.9375 82.1406,636.6563 C82.1406,636.375 82.0156,636.125 81.7969,635.9531 C81.625,635.8281 81.4844,635.7969 81.0313,635.7969 L80.6406,635.7969 L81.0313,634.8125 L85.0781,634.8125 Z M84.375,633.1094 L81.7031,633.1094 L83.0469,629.8438 L84.375,633.1094 Z " fill="#000000"/><text fill="#000000" font-family="Helvetica" font-size="12" font-style="italic" lengthAdjust="spacing" textLength="108" x="97" y="637.1543">RenderToggleable</text><line style="stroke:#A9A9A9;stroke-width:1.0;" x1="69" x2="207" y1="649" y2="649"/><line style="stroke:#A9A9A9;stroke-width:1.0;" x1="69" x2="207" y1="657" y2="657"/><!--MD5=[79e6a38aa498e013012099a11c235d99]
class RenderConstrainedBox--><rect codeLine="36" fill="#FFFFFF" filter="url(#f1ps32ftmh5kx1)" height="48" id="RenderConstrainedBox" style="stroke:#A9A9A9;stroke-width:1.0;" width="170" x="53" y="489"/><ellipse cx="68" cy="505" fill="#ADD1B2" rx="11" ry="11" style="stroke:#A9A9A9;stroke-width:1.0;"/><path d="M70.3438,500.6719 C69.4063,500.2344 68.8125,500.0938 67.9375,500.0938 C65.3125,500.0938 63.3125,502.1719 63.3125,504.8906 L63.3125,506.0156 C63.3125,508.5938 65.4219,510.4844 68.3125,510.4844 C69.5313,510.4844 70.6875,510.1875 71.4375,509.6406 C72.0156,509.2344 72.3438,508.7813 72.3438,508.3906 C72.3438,507.9375 71.9531,507.5469 71.4844,507.5469 C71.2656,507.5469 71.0625,507.625 70.875,507.8125 C70.4219,508.2969 70.4219,508.2969 70.2344,508.3906 C69.8125,508.6563 69.125,508.7813 68.3594,508.7813 C66.3125,508.7813 65.0156,507.6875 65.0156,505.9844 L65.0156,504.8906 C65.0156,503.1094 66.2656,501.7969 68,501.7969 C68.5781,501.7969 69.1875,501.9531 69.6563,502.2031 C70.1406,502.4844 70.3125,502.7031 70.4063,503.1094 C70.4688,503.5156 70.5,503.6406 70.6406,503.7656 C70.7813,503.9063 71.0156,504.0156 71.2344,504.0156 C71.5,504.0156 71.7656,503.875 71.9375,503.6563 C72.0469,503.5 72.0781,503.3125 72.0781,502.8906 L72.0781,501.4688 C72.0781,501.0313 72.0625,500.9063 71.9688,500.75 C71.8125,500.4844 71.5313,500.3438 71.2344,500.3438 C70.9375,500.3438 70.7344,500.4375 70.5156,500.75 L70.3438,500.6719 Z " fill="#000000"/><text fill="#000000" font-family="Helvetica" font-size="12" lengthAdjust="spacing" textLength="138" x="82" y="509.1543">RenderConstrainedBox</text><line style="stroke:#A9A9A9;stroke-width:1.0;" x1="54" x2="222" y1="521" y2="521"/><line style="stroke:#A9A9A9;stroke-width:1.0;" x1="54" x2="222" y1="529" y2="529"/><!--MD5=[9525e3c225519053f22b4d8e2946c4f1]
class RenderProxyBox--><rect codeLine="45" fill="#FFFFFF" filter="url(#f1ps32ftmh5kx1)" height="48" id="RenderProxyBox" style="stroke:#A9A9A9;stroke-width:1.0;" width="131" x="72.5" y="361"/><ellipse cx="87.5" cy="377" fill="#ADD1B2" rx="11" ry="11" style="stroke:#A9A9A9;stroke-width:1.0;"/><path d="M89.8438,372.6719 C88.9063,372.2344 88.3125,372.0938 87.4375,372.0938 C84.8125,372.0938 82.8125,374.1719 82.8125,376.8906 L82.8125,378.0156 C82.8125,380.5938 84.9219,382.4844 87.8125,382.4844 C89.0313,382.4844 90.1875,382.1875 90.9375,381.6406 C91.5156,381.2344 91.8438,380.7813 91.8438,380.3906 C91.8438,379.9375 91.4531,379.5469 90.9844,379.5469 C90.7656,379.5469 90.5625,379.625 90.375,379.8125 C89.9219,380.2969 89.9219,380.2969 89.7344,380.3906 C89.3125,380.6563 88.625,380.7813 87.8594,380.7813 C85.8125,380.7813 84.5156,379.6875 84.5156,377.9844 L84.5156,376.8906 C84.5156,375.1094 85.7656,373.7969 87.5,373.7969 C88.0781,373.7969 88.6875,373.9531 89.1563,374.2031 C89.6406,374.4844 89.8125,374.7031 89.9063,375.1094 C89.9688,375.5156 90,375.6406 90.1406,375.7656 C90.2813,375.9063 90.5156,376.0156 90.7344,376.0156 C91,376.0156 91.2656,375.875 91.4375,375.6563 C91.5469,375.5 91.5781,375.3125 91.5781,374.8906 L91.5781,373.4688 C91.5781,373.0313 91.5625,372.9063 91.4688,372.75 C91.3125,372.4844 91.0313,372.3438 90.7344,372.3438 C90.4375,372.3438 90.2344,372.4375 90.0156,372.75 L89.8438,372.6719 Z " fill="#000000"/><text fill="#000000" font-family="Helvetica" font-size="12" lengthAdjust="spacing" textLength="99" x="101.5" y="381.1543">RenderProxyBox</text><line style="stroke:#A9A9A9;stroke-width:1.0;" x1="73.5" x2="202.5" y1="393" y2="393"/><line style="stroke:#A9A9A9;stroke-width:1.0;" x1="73.5" x2="202.5" y1="401" y2="401"/><!--MD5=[025432195a1d64a9cf5592d1bc13b9f7]
class HitTestTarget--><rect fill="#FFFFFF" filter="url(#f1ps32ftmh5kx1)" height="48" id="HitTestTarget" style="stroke:#A9A9A9;stroke-width:1.0;" width="113" x="156.5" y="7"/><ellipse cx="171.5" cy="23" fill="#B4A7E5" rx="11" ry="11" style="stroke:#A9A9A9;stroke-width:1.0;"/><path d="M172.4531,19.7813 L174.1719,19.7813 C174.5625,19.7813 174.75,19.75 174.875,19.6719 C175.1406,19.5156 175.2813,19.2344 175.2813,18.9375 C175.2813,18.6719 175.1719,18.4063 174.9375,18.2344 C174.7656,18.125 174.625,18.0938 174.1719,18.0938 L169.0313,18.0938 C168.5938,18.0938 168.4688,18.1094 168.3125,18.2031 C168.0625,18.3594 167.9063,18.6563 167.9063,18.9375 C167.9063,19.2188 168.0469,19.4688 168.2656,19.6406 C168.4219,19.75 168.6094,19.7813 169.0313,19.7813 L170.75,19.7813 L170.75,26.2969 L169.0313,26.2969 C168.5938,26.2969 168.4688,26.3125 168.3125,26.4219 C168.0625,26.5781 167.9063,26.8594 167.9063,27.1563 C167.9063,27.4063 168.0469,27.6719 168.2656,27.8281 C168.4219,27.9531 168.625,28 169.0313,28 L174.1719,28 C174.9219,28 175.2813,27.7188 175.2813,27.1563 C175.2813,26.875 175.1719,26.625 174.9375,26.4531 C174.7656,26.3281 174.625,26.2969 174.1719,26.2969 L172.4531,26.2969 L172.4531,19.7813 Z " fill="#000000"/><text fill="#000000" font-family="Helvetica" font-size="12" font-style="italic" lengthAdjust="spacing" textLength="81" x="185.5" y="27.1543">HitTestTarget</text><line style="stroke:#A9A9A9;stroke-width:1.0;" x1="157.5" x2="268.5" y1="39" y2="39"/><line style="stroke:#A9A9A9;stroke-width:1.0;" x1="157.5" x2="268.5" y1="47" y2="47"/><!--MD5=[e9dc9881b850c1e2d2a8f30edb40e840]
class Widget--><rect codeLine="54" fill="#FFFFFF" filter="url(#f1ps32ftmh5kx1)" height="48" id="Widget" style="stroke:#A9A9A9;stroke-width:1.0;" width="75" x="765.5" y="115"/><ellipse cx="780.5" cy="131" fill="#A9DCDF" rx="11" ry="11" style="stroke:#A9A9A9;stroke-width:1.0;"/><path d="M782.5781,132.8125 L782.9688,133.7969 L782.5781,133.7969 C782.125,133.7969 782.0156,133.8125 781.8594,133.9219 C781.6094,134.0781 781.4531,134.3594 781.4531,134.6563 C781.4531,134.9219 781.5938,135.1719 781.8125,135.3281 C781.9531,135.4531 782.1563,135.5 782.5781,135.5 L784.9375,135.5 C785.2969,135.5 785.5156,135.4688 785.6563,135.375 C785.9063,135.2344 786.0625,134.9375 786.0625,134.6563 C786.0625,134.375 785.9219,134.125 785.7031,133.9688 C785.5313,133.8281 785.375,133.7969 784.9063,133.7969 L781.5156,125.5938 L777.8438,125.5938 C777.3906,125.5938 777.2656,125.6094 777.1094,125.7031 C776.8594,125.875 776.7031,126.1563 776.7031,126.4375 C776.7031,126.7188 776.8438,126.9688 777.0625,127.1406 C777.2344,127.25 777.4063,127.2813 777.8438,127.2813 L778.9219,127.2813 L776.2813,133.7969 C775.8594,133.7969 775.7031,133.8125 775.5469,133.9219 C775.2969,134.0781 775.1406,134.3594 775.1406,134.6563 C775.1406,135.2188 775.5156,135.5 776.2656,135.5 L778.5313,135.5 C778.8906,135.5 779.1094,135.4688 779.2344,135.375 C779.5,135.2344 779.6406,134.9375 779.6406,134.6563 C779.6406,134.375 779.5156,134.125 779.2969,133.9531 C779.125,133.8281 778.9844,133.7969 778.5313,133.7969 L778.1406,133.7969 L778.5313,132.8125 L782.5781,132.8125 Z M781.875,131.1094 L779.2031,131.1094 L780.5469,127.8438 L781.875,131.1094 Z " fill="#000000"/><text fill="#000000" font-family="Helvetica" font-size="12" font-style="italic" lengthAdjust="spacing" textLength="43" x="794.5" y="135.1543">Widget</text><line style="stroke:#A9A9A9;stroke-width:1.0;" x1="766.5" x2="839.5" y1="147" y2="147"/><line style="stroke:#A9A9A9;stroke-width:1.0;" x1="766.5" x2="839.5" y1="155" y2="155"/><!--MD5=[5d747b94b2f286ea240dae0dfc7e2e11]
reverse link StatefulWidget to Checkbox--><path d="M814.37,301.163 C814.883,317.33 815.458,335.438 815.939,350.591 " fill="none" id="StatefulWidget-backto-Checkbox" style="stroke:#000000;stroke-width:1.0;"/><polygon fill="none" points="807.372,301.322,813.734,281.11,821.365,300.878,807.372,301.322" style="stroke:#000000;stroke-width:1.0;"/><!--MD5=[e9a64a2ee005d3ba717a7173886c5ca2]
reverse link LeafRenderObjectWidget to _CheckboxRenderObjectWidget--><path d="M398.429,311.172 C406.607,391.278 421.85,540.579 428.615,606.846 " fill="none" id="LeafRenderObjectWidget-backto-_CheckboxRenderObjectWidget" style="stroke:#000000;stroke-width:1.0;"/><polygon fill="none" points="391.46,311.839,396.393,291.232,405.388,310.417,391.46,311.839" style="stroke:#000000;stroke-width:1.0;"/><!--MD5=[c41f6970d647bd72083629ebe98f71fb]
reverse link State to _CheckboxState--><path d="M696,429.163 C696,445.33 696,463.438 696,478.591 " fill="none" id="State-backto-_CheckboxState" style="stroke:#000000;stroke-width:1.0;"/><polygon fill="none" points="689,429.11,696,409.11,703,429.11,689,429.11" style="stroke:#000000;stroke-width:1.0;"/><!--MD5=[0de80649b3b4704349e243348a377da8]
reverse link DiagnosticableTree to Element--><path d="M743.364,65.815 C718.462,81.813 689.363,100.506 667.017,114.862 " fill="none" id="DiagnosticableTree-backto-Element" style="stroke:#000000;stroke-width:1.0;"/><polygon fill="none" points="739.587,59.921,760.197,55,747.154,71.7,739.587,59.921" style="stroke:#000000;stroke-width:1.0;"/><!--MD5=[b5fb8bd4a9416aaaa0806eda8ab07fc4]
reverse link BuildContext to Element--><path d="M631,75.024 C631,88.579 631,103.038 631,114.678 " fill="none" id="BuildContext-backto-Element" style="stroke:#000000;stroke-width:1.0;stroke-dasharray:7.0,7.0;"/><polygon fill="none" points="624,75,631,55,638,75,624,75" style="stroke:#000000;stroke-width:1.0;"/><!--MD5=[633e0990e4a69dda1c09cc9d6b664c36]
reverse link RenderObjectElement to LeafRenderObjectElement--><path d="M598.259,297.363 C583.102,318.122 565.021,342.885 552.079,360.609 " fill="none" id="RenderObjectElement-backto-LeafRenderObjectElement" style="stroke:#000000;stroke-width:1.0;"/><polygon fill="none" points="592.678,293.135,610.126,281.11,603.985,301.391,592.678,293.135" style="stroke:#000000;stroke-width:1.0;"/><!--MD5=[8ccd8ba8ad5afdce4fb138576d764603]
reverse link RenderObjectWidget to LeafRenderObjectWidget--><path d="M393,183.557 C393,196.529 393,210.532 393,222.736 " fill="none" id="RenderObjectWidget-backto-LeafRenderObjectWidget" style="stroke:#000000;stroke-width:1.0;"/><polygon fill="none" points="386,183.196,393,163.196,400,183.195,386,183.196" style="stroke:#000000;stroke-width:1.0;"/><!--MD5=[5c7fb41e52b52087b0b3f9c7d30f4233]
reverse link RenderObject to RenderBox--><path d="M138,183.397 C138,200.179 138,218.707 138,232.845 " fill="none" id="RenderObject-backto-RenderBox" style="stroke:#000000;stroke-width:1.0;"/><polygon fill="none" points="131,183.196,138,163.196,145,183.195,131,183.196" style="stroke:#000000;stroke-width:1.0;"/><!--MD5=[117bf0e458782e455376c88482f879d0]
reverse link RenderToggleable to _RenderCheckbox--><path d="M181.244,678.037 C202.933,696.1105 228.879,717.7323 249.399,734.8327 " fill="none" id="RenderToggleable-backto-_RenderCheckbox" style="stroke:#000000;stroke-width:1.0;"/><polygon fill="none" points="176.533,683.223,165.65,665.041,185.495,672.467,176.533,683.223" style="stroke:#000000;stroke-width:1.0;"/><!--MD5=[ceacbe861ef4650c38672bacaefe47fb]
reverse link RenderProxyBox to RenderConstrainedBox--><path d="M138,429.141 C138,449.068 138,471.948 138,488.609 " fill="none" id="RenderProxyBox-backto-RenderConstrainedBox" style="stroke:#000000;stroke-width:1.0;"/><polygon fill="none" points="131,429.11,138,409.11,145,429.11,131,429.11" style="stroke:#000000;stroke-width:1.0;"/><!--MD5=[d0fa6227b0355504909b73634ad922fa]
reverse link AbstractNode to RenderObject--><path d="M91.6841,71.656 C101.8027,86.15 112.915,102.068 121.719,114.678 " fill="none" id="AbstractNode-backto-RenderObject" style="stroke:#000000;stroke-width:1.0;"/><polygon fill="none" points="85.7657,75.407,80.0569,55,97.2451,67.393,85.7657,75.407" style="stroke:#000000;stroke-width:1.0;"/><!--MD5=[36b8f0cdb4ce3675e826952d64c8b502]
reverse link HitTestTarget to RenderObject--><path d="M184.942,71.656 C174.686,86.15 163.424,102.068 154.501,114.678 " fill="none" id="HitTestTarget-backto-RenderObject" style="stroke:#000000;stroke-width:1.0;stroke-dasharray:7.0,7.0;"/><polygon fill="none" points="179.46,67.284,196.726,55,190.889,75.37,179.46,67.284" style="stroke:#000000;stroke-width:1.0;"/><!--MD5=[a4ce7642d663eb6a1d70738881ac8700]
reverse link Element to RenderObjectElement--><path d="M629.504,183.397 C628.925,200.179 628.286,218.707 627.798,232.845 " fill="none" id="Element-backto-RenderObjectElement" style="stroke:#000000;stroke-width:1.0;"/><polygon fill="none" points="622.515,182.942,630.2,163.196,636.507,183.425,622.515,182.942" style="stroke:#000000;stroke-width:1.0;"/><!--MD5=[81101fee5c3a942c4150e37e7a5c5eea]
reverse link RenderBox to RenderProxyBox--><path d="M138,301.141 C138,321.068 138,343.948 138,360.609 " fill="none" id="RenderBox-backto-RenderProxyBox" style="stroke:#000000;stroke-width:1.0;"/><polygon fill="none" points="131,301.11,138,281.11,145,301.11,131,301.11" style="stroke:#000000;stroke-width:1.0;"/><!--MD5=[a2afcd9148f06dfa15a2e19548507de6]
reverse link RenderConstrainedBox to RenderToggleable--><path d="M138,557.141 C138,577.068 138,599.948 138,616.609 " fill="none" id="RenderConstrainedBox-backto-RenderToggleable" style="stroke:#000000;stroke-width:1.0;"/><polygon fill="none" points="131,557.11,138,537.11,145,557.11,131,557.11" style="stroke:#000000;stroke-width:1.0;"/><!--MD5=[0e377dcf8e8887ab1108d369c1700236]
reverse link Widget to StatefulWidget--><path d="M806.741,183.397 C808.188,200.179 809.785,218.707 811.004,232.845 " fill="none" id="Widget-backto-StatefulWidget" style="stroke:#000000;stroke-width:1.0;"/><polygon fill="none" points="799.743,183.723,805,163.196,813.692,182.52,799.743,183.723" style="stroke:#000000;stroke-width:1.0;"/><!--MD5=[74ad455c7539c4e2c3d3c6fe7aaf0fc9]
reverse link DiagnosticableTree to Widget--><path d="M798.841,75.024 C799.736,88.579 800.691,103.038 801.46,114.678 " fill="none" id="DiagnosticableTree-backto-Widget" style="stroke:#000000;stroke-width:1.0;"/><polygon fill="none" points="791.852,75.418,797.519,55,805.822,74.496,791.852,75.418" style="stroke:#000000;stroke-width:1.0;"/><!--MD5=[01daf94d86d9bd50bb63963feafad7d1]
link Checkbox to _CheckboxState--><path codeLine="58" d="M770,405 C752.67,405 729.527,443.446 713.767,474.248 " fill="none" id="Checkbox-to-_CheckboxState" style="stroke:#000000;stroke-width:1.0;"/><polygon fill="#000000" points="711.497,478.731,719.1307,472.508,713.7553,474.2701,711.9932,468.8947,711.497,478.731" style="stroke:#000000;stroke-width:1.0;"/><!--MD5=[198d27abb2112e57caf86a48cf60ec43]
link _CheckboxState to _CheckboxRenderObjectWidget--><path codeLine="59" d="M612,533 C555.756,533 501.752,572.079 467.823,603.003 " fill="none" id="_CheckboxState-to-_CheckboxRenderObjectWidget" style="stroke:#000000;stroke-width:1.0;"/><polygon fill="#000000" points="463.786,606.731,473.1125,603.566,467.4601,603.3397,467.6864,597.6874,463.786,606.731" style="stroke:#000000;stroke-width:1.0;"/><!--MD5=[50abb15280fe450acfa486370cf326fa]
link LeafRenderObjectWidget to LeafRenderObjectElement--><path codeLine="60" d="M486,277 C520.573,277 530.849,323.748 533.844,355.445 " fill="none" id="LeafRenderObjectWidget-to-LeafRenderObjectElement" style="stroke:#000000;stroke-width:1.0;"/><polygon fill="#000000" points="534.294,360.783,537.5239,351.4788,533.874,355.8007,529.5522,352.1508,534.294,360.783" style="stroke:#000000;stroke-width:1.0;"/><!--MD5=[63c49468f7278e35a62fb365575f2a22]
link _CheckboxRenderObjectWidget to _RenderCheckbox--><path codeLine="61" d="M250,661 C220.079,661 240.32,700.2967 260.266,730.4624 " fill="none" id="_CheckboxRenderObjectWidget-to-_RenderCheckbox" style="stroke:#000000;stroke-width:1.0;"/><polygon fill="#000000" points="263.201,734.8411,261.514,725.1378,260.4177,730.6874,254.8681,729.5911,263.201,734.8411" style="stroke:#000000;stroke-width:1.0;"/><!--MD5=[bdddf4bab23a95c39d84986c2a33ffa3]
@startuml
class AbstractNode {
}

class Checkbox extends StatefulWidget {
    createState() 
}

class _CheckboxRenderObjectWidget extends LeafRenderObjectWidget {
  _RenderCheckbox createRenderObject(BuildContext context)
}

class _CheckboxState extends State {
    build(BuildContext context)
}

abstract class DiagnosticableTree {
}

abstract class Element extends DiagnosticableTree implements BuildContext {
}

class LeafRenderObjectElement extends RenderObjectElement {
}

class LeafRenderObjectWidget extends RenderObjectWidget {
  createElement()
}

abstract class RenderBox extends RenderObject {
}

class _RenderCheckbox extends RenderToggleable {
  void paint(PaintingContext context, Offset offset) 
}

class RenderConstrainedBox extends RenderProxyBox {
}

abstract class RenderObject extends AbstractNode implements HitTestTarget {
}

abstract class RenderObjectElement extends Element {
}

class RenderProxyBox extends RenderBox {
}

abstract class RenderToggleable extends RenderConstrainedBox {
}

abstract class StatefulWidget extends Widget {
}

abstract class Widget extends DiagnosticableTree {
}


Checkbox::createState - -> _CheckboxState
_CheckboxState::build - -> _CheckboxRenderObjectWidget
LeafRenderObjectWidget::createElement - -> LeafRenderObjectElement
_CheckboxRenderObjectWidget::createRenderObject - -> _RenderCheckbox














skinparam defaultFontName  Helvetica
skinparam sequenceMessageAlign center
skinparam monochrome false

skinparam class {
	ArrowColor Black
	BackgroundColor White
	BorderColor DarkGray
	BorderThickness 1
}


skinparam object {
	ArrowColor Black
	BackgroundColor White
	BorderColor Black
}

skinparam package {
	BackgroundColor White
	BorderColor Black
}
@enduml

PlantUML version 1.2021.01beta3(Unknown compile time)
(GPL source distribution)
Java Runtime: Java(TM) SE Runtime Environment
JVM: Java HotSpot(TM) 64-Bit Server VM
Default Encoding: UTF-8
Language: en
Country: US
--></g></svg>